<?xml version="1.0" encoding="utf-8"?>
<!-- Generator: Adobe Illustrator 25.2.3, SVG Export Plug-In . SVG Version: 6.00 Build 0)  -->
<svg version="1.1" xmlns="http://www.w3.org/2000/svg" xmlns:xlink="http://www.w3.org/1999/xlink" x="0px" y="0px"
	 viewBox="0 0 64 64" style="enable-background:new 0 0 64 64;" xml:space="preserve">
<g id="Layer_3">
</g>
<g id="Layer_4">
</g>
<g id="Layer_5">
</g>
<g id="Layer_6">
</g>
<g id="Layer_7">
</g>
<g id="Layer_8">
	<g>
		<path style="fill:#F7B84B;" d="M50,16H30.606c-2.253,0-4.356-1.126-5.606-3c-1.25-1.874-3.353-3-5.606-3H6c-2.209,0-4,1.791-4,4
			v32c0,2.209,1.791,4,4,4h48V20C54,17.791,52.209,16,50,16z"/>
		<path style="fill:#F7D564;" d="M6,50h48V22.555C53.41,22.211,52.732,22,52,22H32.606c-2.253,0-4.356-1.126-5.606-3
			c-1.25-1.874-3.353-3-5.606-3H8c-2.209,0-4,1.791-4,4v29.445C4.59,49.789,5.268,50,6,50z"/>
		<path style="fill:#F7B84B;" d="M38,45c0.552,0,1-0.448,1-1s-0.448-1-1-1H2v2H38z"/>
		<circle style="fill:#D6D6D6;" cx="49" cy="41" r="13"/>
		<ellipse style="fill:#F2F2F2;" cx="50.5" cy="41" rx="11.5" ry="12.907"/>
		<rect x="41" y="37" style="fill:#42596D;" width="10" height="8"/>
		<rect x="43" y="37" style="fill:#687A8A;" width="8" height="8"/>
		<polygon style="fill:#42596D;" points="51,39 51,43 57,46 57,36 		"/>
		<g>
			<path d="M55,28.37V20c0-2.757-2.243-5-5-5H30.605c-1.923,0-3.707-0.955-4.773-2.555C24.395,10.288,21.987,9,19.395,9H6
				c-2.757,0-5,2.243-5,5v32c0,2.757,2.243,5,5,5h33.221c2.526,2.47,5.976,4,9.779,4c7.72,0,14-6.28,14-14
				C63,35.429,59.722,30.623,55,28.37z M6,11h13.395c1.923,0,3.707,0.955,4.773,2.555C25.605,15.712,28.013,17,30.605,17H50
				c1.654,0,3,1.346,3,3v7.59C51.731,27.21,50.39,27,49,27c-7.72,0-14,6.28-14,14c0,0.681,0.065,1.345,0.16,2H3V14
				C3,12.346,4.346,11,6,11z M3,46v-1h32.59c0.432,1.445,1.092,2.791,1.938,4H6C4.346,49,3,47.654,3,46z M49,53
				c-6.617,0-12-5.383-12-12s5.383-12,12-12s12,5.383,12,12S55.617,53,49,53z"/>
			<path d="M6,31c0.553,0,1-0.448,1-1V20c0-0.552-0.447-1-1-1s-1,0.448-1,1v10C5,30.552,5.447,31,6,31z"/>
			<path d="M6,37c0.553,0,1-0.448,1-1v-2c0-0.552-0.447-1-1-1s-1,0.448-1,1v2C5,36.552,5.447,37,6,37z"/>
			<path d="M57.525,35.149c-0.295-0.183-0.663-0.199-0.973-0.044L52,37.382V37c0-0.552-0.447-1-1-1H41c-0.553,0-1,0.448-1,1v8
				c0,0.552,0.447,1,1,1h10c0.553,0,1-0.448,1-1v-0.382l4.553,2.276C56.694,46.965,56.847,47,57,47c0.183,0,0.365-0.05,0.525-0.149
				C57.82,46.668,58,46.347,58,46V36C58,35.653,57.82,35.332,57.525,35.149z M50,44h-8v-6h8V44z M56,44.382l-4-2v-2.764l4-2V44.382z
				"/>
		</g>
	</g>
</g>
<g id="Layer_9">
</g>
<g id="Layer_10">
</g>
<g id="Layer_11">
</g>
<g id="Layer_12">
</g>
<g id="Layer_13">
</g>
<g id="Layer_14">
</g>
<g id="Layer_15">
</g>
<g id="Layer_16">
</g>
<g id="Layer_17">
</g>
<g id="Layer_18">
</g>
<g id="Layer_19">
</g>
<g id="Layer_20">
</g>
<g id="Layer_21">
</g>
<g id="Layer_22">
</g>
<g id="Layer_23">
</g>
<g id="Layer_24">
</g>
<g id="Layer_25">
</g>
<g id="Layer_26">
</g>
<g id="Layer_27">
</g>
<g id="Layer_28">
</g>
<g id="Layer_29">
</g>
<g id="Layer_30">
</g>
<g id="Layer_31">
</g>
<g id="Layer_32">
</g>
</svg>
